<?xml version="1.0" encoding="UTF-8" standalone="no"?>
<!-- Created with Inkscape (http://www.inkscape.org/) -->

<svg
   width="35.607063mm"
   height="31.792768mm"
   viewBox="0 0 35.607063 31.792768"
   version="1.1"
   id="svg1"
   inkscape:version="1.4 (86a8ad7, 2024-10-11)"
   sodipodi:docname="doodle-hat-i-love-cap-text-to-path.svg"
   xmlns:inkscape="http://www.inkscape.org/namespaces/inkscape"
   xmlns:sodipodi="http://sodipodi.sourceforge.net/DTD/sodipodi-0.dtd"
   xmlns:xlink="http://www.w3.org/1999/xlink"
   xmlns="http://www.w3.org/2000/svg"
   xmlns:svg="http://www.w3.org/2000/svg">
  <sodipodi:namedview
     id="namedview1"
     pagecolor="#505050"
     bordercolor="#eeeeee"
     borderopacity="1"
     inkscape:showpageshadow="0"
     inkscape:pageopacity="0"
     inkscape:pagecheckerboard="0"
     inkscape:deskcolor="#505050"
     inkscape:document-units="mm"
     inkscape:zoom="4.1020923"
     inkscape:cx="53.874946"
     inkscape:cy="92.635653"
     inkscape:window-width="1920"
     inkscape:window-height="1009"
     inkscape:window-x="-8"
     inkscape:window-y="63"
     inkscape:window-maximized="1"
     inkscape:current-layer="g106" />
  <defs
     id="defs1">
    <radialGradient
       inkscape:collect="always"
       xlink:href="#linearGradient15"
       id="radialGradient105"
       gradientUnits="userSpaceOnUse"
       gradientTransform="matrix(0.29164638,0.02837822,-0.02354575,0.3540379,25.097229,135.5856)"
       cx="92.393028"
       cy="160.69017"
       fx="92.393028"
       fy="160.69017"
       r="31.563423" />
    <linearGradient
       id="linearGradient15"
       inkscape:collect="always">
      <stop
         style="stop-color:#676767;stop-opacity:1;"
         offset="0"
         id="stop16" />
      <stop
         style="stop-color:#000000;stop-opacity:1;"
         offset="1"
         id="stop17" />
    </linearGradient>
    <radialGradient
       inkscape:collect="always"
       xlink:href="#linearGradient12"
       id="radialGradient106"
       gradientUnits="userSpaceOnUse"
       gradientTransform="matrix(0.88386456,-0.09476181,0.05025766,0.46875863,4.3554516,84.609578)"
       cx="102.01171"
       cy="137.46013"
       fx="102.01171"
       fy="137.46013"
       r="21.368479" />
    <linearGradient
       id="linearGradient12"
       inkscape:collect="always">
      <stop
         style="stop-color:#747464;stop-opacity:1;"
         offset="0"
         id="stop12" />
      <stop
         style="stop-color:#32322c;stop-opacity:1;"
         offset="1"
         id="stop13" />
    </linearGradient>
    <inkscape:path-effect
       effect="simplify"
       id="path-effect99"
       is_visible="true"
       lpeversion="1.3"
       threshold="41.666667"
       steps="1"
       smooth_angles="360"
       helper_size="0"
       simplify_individual_paths="false"
       simplify_just_coalesce="false" />
    <inkscape:path-effect
       effect="simplify"
       id="path-effect101"
       is_visible="true"
       lpeversion="1.3"
       threshold="41.666667"
       steps="1"
       smooth_angles="360"
       helper_size="0"
       simplify_individual_paths="false"
       simplify_just_coalesce="false" />
    <inkscape:path-effect
       effect="simplify"
       id="path-effect103"
       is_visible="true"
       lpeversion="1.3"
       threshold="41.666667"
       steps="1"
       smooth_angles="360"
       helper_size="0"
       simplify_individual_paths="false"
       simplify_just_coalesce="false" />
    <inkscape:path-effect
       effect="simplify"
       id="path-effect105"
       is_visible="true"
       lpeversion="1.3"
       threshold="41.666667"
       steps="1"
       smooth_angles="360"
       helper_size="0"
       simplify_individual_paths="false"
       simplify_just_coalesce="false" />
  </defs>
  <g
     inkscape:label="Layer 1"
     inkscape:groupmode="layer"
     id="layer1"
     transform="translate(-44.185417,-59.266662)">
    <g
       id="g106"
       transform="matrix(1.3820352,0,0,1.3820352,17.67285,-188.7984)">
      <ellipse
         style="fill:url(#radialGradient105);fill-opacity:1;stroke:none;stroke-width:0.182977;stroke-linecap:round;stroke-linejoin:round;-inkscape-stroke:none"
         id="ellipse93"
         cx="53.516956"
         cy="194.81633"
         rx="12.887469"
         ry="5.7889843"
         transform="matrix(0.99836976,0.05707736,-0.10966168,0.99396897,0,0)" />
      <path
         style="fill:url(#radialGradient106);fill-opacity:1;stroke-width:0.32729;stroke-linecap:round;stroke-linejoin:round;-inkscape-stroke:none"
         d="m 117.07781,149.845 c 0.97317,-1.10807 1.15712,-2.61388 1.79929,-3.91963 0.93287,-1.89687 1.53694,-4.03289 0.96321,-6.20544 -0.86728,-3.28412 -2.75217,-6.47281 -5.87113,-8.0737 -3.10565,-1.59407 -6.62313,-2.2506 -10.06726,-2.41113 -5.361818,-0.2499 -10.781582,0.72846 -15.741463,2.7221 -3.311662,1.33114 -6.74789,2.9931 -8.789493,6.08144 -0.873445,1.32126 -1.438608,2.77926 -1.757224,4.37499 -0.561209,2.81073 0.09201,5.83485 1.913419,8.08391 1.276693,1.57646 2.741468,3.20374 4.636033,3.89773 3.475553,1.27313 7.200861,0.25602 10.807856,0.14304 2.07217,-0.0649 4.11262,-0.48506 6.178732,-0.65418 2.54821,-0.2086 4.99726,-0.9283 7.53459,-1.2608 2.31573,-0.30346 4.67903,-0.56245 6.83217,-1.52432"
         id="path94"
         sodipodi:nodetypes="csssssscscsssc"
         inkscape:original-d="m 117.07781,149.845 c 0.30235,-0.35718 0.64479,-0.83002 0.77354,-1.345 0.58863,-2.35448 2.90325,-5.17077 2.18919,-8.02703 -2.05745,-8.22979 -6.60836,-10.0845 -14.95946,-11.12838 -6.057531,-0.75719 -15.975286,1.2771 -22.11368,5.16816 -2.440016,1.5467 -3.55764,3.28452 -4.703886,5.41292 -0.54202,1.00645 -0.57068,1.988 -0.729732,3.10136 -0.856996,5.99897 3.332065,9.25687 6.476593,11.31081 3.251628,1.24945 7.050657,0.9432 10.398409,0.27365 0.73637,-0.14728 1.535833,-0.0583 2.280405,-0.18244 2.161996,-0.36033 4.334381,-0.46395 6.476351,-0.82094 1.36211,-0.22702 2.72783,-0.66796 4.10473,-0.82095 1.65636,-0.18404 6.00358,-0.67581 7.38851,-1.36824 0.10535,-0.0527 0.49482,-0.16733 0.85776,-0.31991"
         inkscape:path-effect="#path-effect99"
         transform="matrix(0.40383425,0.10625972,-0.0569461,0.75354263,1.7384172,71.544274)" />
      <path
         id="path95"
         style="fill:#f9f9f9;stroke-width:0.182332;stroke-linecap:round;stroke-linejoin:round;-inkscape-stroke:none"
         d="m 41.219663,194.77468 c -0.675581,0.35032 -1.35391,0.67951 -2.069334,0.6946 -2.486606,0.0525 -4.983062,0.16759 -7.456965,-0.42795 -2.28023,-0.54888 -4.481428,-1.82417 -6.721484,-2.84607 0.349898,1.88693 0.995296,3.6423 1.903865,4.57609 0.936514,0.96251 10.686385,3.37198 13.609526,0.12824 0.370896,-0.54145 0.503318,-1.39105 0.734392,-2.12491 z"
         sodipodi:nodetypes="csscscc" />
      <path
         style="opacity:0.569231;fill:none;fill-opacity:1;stroke:#f2f2f2;stroke-width:1.127;stroke-linecap:round;stroke-linejoin:round;stroke-dasharray:none;stroke-opacity:1"
         d="m 122.388,146.0271 c 0.79524,0.16549 1.58109,0.43006 2.26905,0.86786 0.0506,0.0322 0.1005,0.0654 0.14968,0.0996"
         id="path96"
         inkscape:path-effect="#path-effect101"
         inkscape:original-d="m 122.388,146.0271 c 0.80522,0.16308 1.72439,0.48366 2.41873,0.9675"
         sodipodi:nodetypes="cc"
         transform="matrix(0.40383425,0.10625972,-0.0569461,0.75354263,2.044119,71.937272)" />
      <path
         style="opacity:0.569231;fill:none;fill-opacity:1;stroke:#ececec;stroke-width:1.127;stroke-linecap:round;stroke-linejoin:round;stroke-dasharray:none;stroke-opacity:1"
         d="m 101.47804,130.39359 c 0.89924,-0.0336 1.80212,-0.0245 2.69616,0.095 0.89177,0.11911 1.77591,0.291 2.63999,0.54356"
         id="path97"
         inkscape:path-effect="#path-effect103"
         inkscape:original-d="m 101.47804,130.39359 c 1.47572,-0.0476 2.08302,-0.0211 3.55743,0.22804 0.59998,0.1014 1.19364,0.24331 1.77872,0.41047"
         sodipodi:nodetypes="csc"
         transform="matrix(0.40714883,0.04395087,-0.0235539,0.75972755,-3.2904376,77.280187)" />
      <path
         style="opacity:0.569231;fill:none;fill-opacity:1;stroke:#ececec;stroke-width:1.127;stroke-linecap:round;stroke-linejoin:round;stroke-dasharray:none;stroke-opacity:1"
         d="m 109.73311,132.08108 c 0.25321,0.1397 0.48551,0.31239 0.71827,0.48312 0.13797,0.10119 0.27876,0.19853 0.42193,0.29222"
         id="path98"
         inkscape:path-effect="#path-effect105"
         inkscape:original-d="m 109.73311,132.08108 c 0.49721,0.28328 0.57719,0.40636 1.1402,0.77534"
         sodipodi:nodetypes="cc"
         transform="matrix(0.40458823,-0.09575395,0.05131591,0.75494954,-12.415154,93.430401)" />
      <path
         id="path106"
         style="fill:none;stroke:none;stroke-width:0.182332;stroke-linecap:round;stroke-linejoin:round;-inkscape-stroke:none"
         d="m 27.028805,195.96175 c 0.936514,0.96251 10.686385,3.37198 13.609526,0.12824"
         sodipodi:nodetypes="cc" />
      <path
         d="m 28.260111,196.5668 q -0.02264,-0.008 -0.03913,-0.0244 -0.01522,-0.017 -0.0082,-0.0368 l 0.215069,-0.61127 q 0.0073,-0.0207 0.02916,-0.0226 0.02313,-0.002 0.04577,0.006 0.02358,0.008 0.03913,0.0244 0.01588,0.0151 0.0086,0.0359 l -0.215069,0.61127 q -0.007,0.0198 -0.02949,0.0235 -0.02219,0.003 -0.04577,-0.006 z m 0.772037,-0.51295 q 0.09509,0.028 0.117056,0.15403 0.0069,0.0494 0.001,0.0726 l 0.0014,4.1e-4 q 0.03871,-0.0711 0.09655,-0.10851 0.06547,-0.0357 0.12871,-0.0171 0.09791,0.0288 0.126066,0.15109 0.0036,0.0433 -0.0065,0.0775 -0.03444,0.11711 -0.163155,0.19479 l -0.335292,0.22458 -0.0028,-8.3e-4 -0.168336,-0.40018 q -0.05045,-0.11918 -0.02042,-0.2213 0.02907,-0.0988 0.139374,-0.12951 0.04555,-0.01 0.0863,0.002 z m 0.865023,0.99607 q -0.06023,-0.0147 -0.106486,-0.0487 -0.04602,-0.0349 -0.06523,-0.0911 -0.018,-0.0569 0.0019,-0.1385 l 0.06578,-0.26908 q 0.01995,-0.0816 0.06193,-0.1228 0.0432,-0.0419 0.0999,-0.0507 0.05694,-0.01 0.118143,0.005 0.068,0.0166 0.113782,0.0525 0.04699,0.0352 0.06616,0.0831 0.02014,0.0482 0.0061,0.10547 -0.0093,0.0379 -0.02789,0.0467 -0.01839,0.008 -0.05045,2e-5 -0.02623,-0.006 -0.04255,-0.0197 -0.01511,-0.014 -0.01086,-0.0356 0.0028,-0.0117 0.0028,-0.0281 0.0011,-0.0172 -0.0048,-0.0351 -0.0059,-0.0179 -0.0237,-0.0336 -0.01682,-0.0154 -0.05179,-0.024 -0.04954,-0.0121 -0.08266,0.01 -0.03288,0.0208 -0.04689,0.0781 l -0.06578,0.26908 q -0.01425,0.0583 0.0053,0.0919 0.02055,0.0339 0.07106,0.0462 0.03303,0.008 0.05507,0.002 0.02204,-0.006 0.03458,-0.0193 0.01375,-0.0141 0.02094,-0.0309 0.0082,-0.0165 0.0139,-0.0316 0.0076,-0.0228 0.02703,-0.0263 0.01962,-0.004 0.04488,0.002 0.03303,0.008 0.04548,0.0245 0.01246,0.0164 0.0034,0.0533 -0.01425,0.0583 -0.05505,0.0946 -0.03983,0.0366 -0.09798,0.0471 -0.05816,0.0105 -0.126152,-0.006 z m 0.407928,0.0989 q -0.05175,-0.0115 -0.0829,-0.0511 -0.02997,-0.0404 -0.01526,-0.10683 0.01233,-0.0557 0.04756,-0.0806 0.03621,-0.0248 0.08979,-0.0262 0.05456,-0.001 0.121924,0.0137 l 0.04003,0.009 0.0028,-0.0127 q 0.0048,-0.0215 5.12e-4,-0.0439 -0.0033,-0.0222 -0.01879,-0.04 -0.01455,-0.0176 -0.04774,-0.0249 -0.0371,-0.008 -0.05933,-0.005 -0.02104,0.003 -0.03351,0.008 -0.01247,0.005 -0.02516,0.003 -0.0205,-0.005 -0.02768,-0.0276 -0.0062,-0.0229 -0.0014,-0.0444 0.0045,-0.0205 0.03241,-0.0307 0.02906,-0.011 0.06713,-0.0118 0.03807,-7.9e-4 0.07224,0.007 0.07615,0.0169 0.115987,0.0544 0.03983,0.0375 0.05082,0.085 0.01196,0.0477 9.35e-4,0.0975 l -0.05276,0.23823 q -0.0039,0.0176 -0.02406,0.0254 -0.02017,0.008 -0.04653,0.002 -0.02441,-0.005 -0.03841,-0.0208 -0.01303,-0.0152 -0.0091,-0.0328 l 0.0061,-0.0273 q -0.03307,0.0244 -0.07438,0.0399 -0.04034,0.0156 -0.09111,0.004 z m 0.07153,-0.0825 q 0.0205,0.005 0.04403,-0.005 0.02353,-0.009 0.04196,-0.0276 0.0194,-0.0182 0.02459,-0.0417 l 0.0045,-0.0205 -0.01464,-0.003 q -0.03222,-0.007 -0.06237,-0.01 -0.03016,-0.003 -0.05173,0.007 -0.02039,0.009 -0.02644,0.0361 -0.0061,0.0273 0.0058,0.0433 0.01281,0.0162 0.03429,0.0209 z m 0.310351,0.38201 q -0.02647,-0.005 -0.04156,-0.0216 -0.01509,-0.0163 -0.01214,-0.031 l 0.120944,-0.60299 q 0.0035,-0.0177 0.02335,-0.0249 0.01981,-0.007 0.0453,-0.002 0.02549,0.005 0.03902,0.019 0.0145,0.0141 0.01097,0.0318 l -0.0059,0.0294 q 0.02237,-0.0251 0.06121,-0.0408 0.03904,-0.0166 0.0861,-0.007 0.05,0.01 0.08372,0.0454 0.03489,0.0345 0.04839,0.0842 0.01449,0.0498 0.0035,0.10473 l -0.01613,0.0804 q -0.01042,0.052 -0.0432,0.0933 -0.03277,0.0414 -0.0777,0.0619 -0.04394,0.0208 -0.091,0.0113 -0.04314,-0.009 -0.07372,-0.0393 -0.03058,-0.0306 -0.03919,-0.064 l -0.04916,0.24512 q -0.0029,0.0147 -0.02414,0.0237 -0.02118,0.009 -0.04864,0.004 z m 0.215887,-0.28817 q 0.02353,0.005 0.04472,-0.004 0.02236,-0.01 0.03826,-0.028 0.01688,-0.018 0.0214,-0.0406 l 0.01613,-0.0804 q 0.0045,-0.0225 -0.0033,-0.0445 -0.0078,-0.022 -0.02586,-0.0388 -0.01686,-0.0177 -0.04137,-0.0226 -0.02157,-0.004 -0.04334,0.003 -0.02079,0.007 -0.03747,0.0241 -0.01668,0.0171 -0.02219,0.0445 l -0.01966,0.0981 q -0.002,0.01 0.0053,0.0296 0.0084,0.019 0.02508,0.0377 0.01686,0.0177 0.04235,0.0228 z m 0.442423,-0.40052 q -0.02851,-0.005 -0.0457,-0.0278 -0.01701,-0.0235 -0.01263,-0.0471 0.0047,-0.0256 0.02866,-0.0394 0.02411,-0.0149 0.05262,-0.01 0.0295,0.005 0.0457,0.0278 0.01639,0.0213 0.01165,0.0469 -0.0044,0.0236 -0.02768,0.0396 -0.02313,0.015 -0.05263,0.01 z m -0.10584,0.57128 q -0.02753,-0.005 -0.04286,-0.0212 -0.01533,-0.0161 -0.01242,-0.0318 l 0.07159,-0.38642 q 0.0033,-0.0177 0.02298,-0.0252 0.0197,-0.008 0.04723,-0.002 0.02655,0.005 0.04323,0.0192 0.01668,0.0143 0.0134,0.032 l -0.07159,0.38642 q -0.0029,0.0157 -0.02397,0.025 -0.02105,0.009 -0.0476,0.004 z m 0.34296,0.0612 q -0.08867,-0.0154 -0.129289,-0.062 -0.03963,-0.0465 -0.02509,-0.13021 l 0.08283,-0.47686 q 0.0031,-0.0177 0.02565,-0.025 0.02257,-0.007 0.04425,-0.003 0.02365,0.004 0.04147,0.0184 0.01881,0.0144 0.01573,0.0322 l -0.02944,0.16946 0.116259,0.0202 q 0.01576,0.003 0.02108,0.0189 0.0065,0.0153 0.0034,0.0331 -0.0031,0.0177 -0.01451,0.031 -0.01028,0.0124 -0.02604,0.01 l -0.116259,-0.0202 -0.03731,0.21479 q -0.0051,0.0296 0.0046,0.0434 0.01075,0.014 0.0413,0.0193 l 0.03843,0.007 q 0.02759,0.005 0.03749,0.0238 0.01088,0.0191 0.0075,0.0388 -0.0036,0.0207 -0.0203,0.035 -0.01572,0.0145 -0.0433,0.01 z m 0.257703,0.0519 q -0.05236,-0.008 -0.08591,-0.0459 -0.03241,-0.0385 -0.02185,-0.10568 0.0089,-0.0563 0.04247,-0.0834 0.03461,-0.0269 0.088,-0.0317 0.05438,-0.005 0.122538,0.006 l 0.0405,0.006 0.002,-0.0128 q 0.0034,-0.0217 -0.0022,-0.0439 -0.0046,-0.022 -0.02124,-0.0388 -0.01561,-0.0166 -0.04919,-0.0219 -0.03754,-0.006 -0.05953,-0.001 -0.02085,0.004 -0.03295,0.01 -0.01211,0.006 -0.02495,0.004 -0.02075,-0.003 -0.02934,-0.0259 -0.0076,-0.0224 -0.0042,-0.0442 0.0033,-0.0207 0.03044,-0.0327 0.02833,-0.0128 0.06627,-0.0159 0.03795,-0.003 0.07252,0.002 0.07705,0.0121 0.119133,0.0471 0.04208,0.035 0.05599,0.0817 0.0149,0.0469 0.007,0.0973 l -0.03791,0.24104 q -0.0028,0.0178 -0.02244,0.0268 -0.01964,0.009 -0.04632,0.005 -0.0247,-0.004 -0.03963,-0.0184 -0.01394,-0.0143 -0.01114,-0.0321 l 0.0044,-0.0277 q -0.03149,0.0264 -0.07177,0.0444 -0.03929,0.0181 -0.09066,0.01 z m 0.06628,-0.0867 q 0.02074,0.003 0.04367,-0.007 0.02292,-0.0106 0.04017,-0.0301 0.01823,-0.0194 0.02196,-0.0431 l 0.0033,-0.0207 -0.01482,-0.002 q -0.0326,-0.005 -0.06286,-0.006 -0.03026,-7.1e-4 -0.0512,0.0102 -0.0198,0.0101 -0.02415,0.0377 -0.0043,0.0277 0.0084,0.0428 0.01379,0.0153 0.03552,0.0188 z m 0.371819,0.14397 q -0.02772,-0.004 -0.0437,-0.0194 -0.01598,-0.0154 -0.01372,-0.0312 l 0.09465,-0.66328 q 0.0025,-0.0178 0.02192,-0.0262 0.01937,-0.008 0.04709,-0.004 0.02673,0.004 0.04398,0.0174 0.01726,0.0136 0.01471,0.0314 l -0.09465,0.66328 q -0.0023,0.0158 -0.02291,0.026 -0.02065,0.0102 -0.04737,0.006 z m 0.313193,-0.54331 q -0.02875,-0.004 -0.04706,-0.0254 -0.01818,-0.0226 -0.01502,-0.0464 0.0034,-0.0258 0.02661,-0.0409 0.02332,-0.0161 0.05207,-0.0122 0.02974,0.004 0.04706,0.0254 0.01745,0.0205 0.01403,0.0462 -0.0032,0.0238 -0.02562,0.041 -0.02233,0.0162 -0.05207,0.0122 z m -0.07657,0.57593 q -0.02776,-0.004 -0.04388,-0.019 -0.01613,-0.0153 -0.01402,-0.0311 l 0.05179,-0.38957 q 0.0024,-0.0178 0.02166,-0.0264 0.01929,-0.009 0.04705,-0.005 0.02676,0.004 0.04415,0.017 0.01739,0.0134 0.01501,0.0312 l -0.05179,0.38957 q -0.0021,0.0159 -0.02266,0.0262 -0.02055,0.0104 -0.04731,0.007 z m 0.31492,0.0489 q -0.04965,-0.006 -0.08993,-0.0228 -0.03917,-0.0178 -0.06063,-0.0405 -0.02046,-0.0226 -0.01797,-0.0434 0.0013,-0.0109 0.0078,-0.0232 0.0075,-0.0122 0.01762,-0.0211 0.01111,-0.009 0.02402,-0.007 0.0139,0.002 0.02737,0.0154 0.01458,0.0128 0.03612,0.0265 0.02253,0.0138 0.06423,0.0188 0.04468,0.005 0.06024,-0.007 0.01655,-0.0121 0.01833,-0.027 0.0026,-0.0218 -0.01384,-0.0359 -0.01546,-0.0139 -0.04143,-0.0241 -0.02586,-0.0111 -0.05557,-0.0238 -0.02872,-0.0125 -0.05387,-0.0296 -0.02503,-0.0181 -0.03894,-0.0449 -0.0138,-0.0278 -0.0089,-0.0685 0.0043,-0.0357 0.02519,-0.0675 0.02091,-0.0317 0.06225,-0.049 0.04145,-0.0182 0.10798,-0.0103 0.04071,0.005 0.07539,0.0181 0.03579,0.0123 0.05685,0.03 0.02106,0.0176 0.01892,0.0355 -0.0011,0.009 -0.0088,0.0231 -0.0076,0.0132 -0.01996,0.0238 -0.01135,0.0107 -0.02625,0.009 -0.01092,-0.001 -0.02598,-0.0101 -0.01394,-0.01 -0.03297,-0.0191 -0.01903,-0.009 -0.04683,-0.0126 -0.02482,-0.003 -0.04055,0.002 -0.01572,0.005 -0.02386,0.0143 -0.0081,0.009 -0.0094,0.02 -0.0021,0.0179 0.01356,0.0298 0.01569,0.0119 0.04167,0.0221 0.02697,0.0103 0.05569,0.0228 0.02983,0.0116 0.05474,0.0307 0.0259,0.0192 0.03946,0.049 0.01368,0.0288 0.0085,0.0725 -0.0079,0.0665 -0.06036,0.10055 -0.05141,0.0341 -0.139785,0.0236 z m 0.325218,0.0294 q -0.02788,-0.003 -0.0446,-0.0172 -0.01672,-0.0146 -0.01524,-0.0306 l 0.0364,-0.39131 q 0.0017,-0.0179 0.02061,-0.0272 0.01894,-0.009 0.04682,-0.007 0.0239,0.002 0.03881,0.0147 0.01591,0.0125 0.01424,0.0305 l -0.0028,0.0299 q 0.01961,-0.0273 0.0546,-0.0471 0.03508,-0.0208 0.08487,-0.0162 0.04281,0.004 0.07308,0.0349 0.03026,0.0309 0.04212,0.0762 0.03061,-0.0484 0.07266,-0.0686 0.04314,-0.0211 0.08595,-0.0171 0.0458,0.004 0.08341,0.0319 0.03869,0.0267 0.05933,0.0748 0.02172,0.0472 0.0157,0.11194 l -0.02186,0.23498 q -0.0015,0.0159 -0.0216,0.0271 -0.02012,0.0112 -0.04701,0.009 -0.02589,-0.002 -0.0436,-0.0171 -0.01771,-0.0147 -0.01623,-0.0306 l 0.02186,-0.23499 q 0.0028,-0.0299 -0.0073,-0.0509 -0.0091,-0.0209 -0.02709,-0.0326 -0.0179,-0.0127 -0.03781,-0.0146 -0.01892,-0.002 -0.03786,0.008 -0.01885,0.008 -0.03265,0.0271 -0.0138,0.0188 -0.01649,0.0477 l -0.02204,0.23697 q -0.002,0.0219 -0.02387,0.0299 -0.02075,0.007 -0.04464,0.005 -0.02191,-0.002 -0.04198,-0.0129 -0.01998,-0.0119 -0.01795,-0.0338 l 0.02195,-0.23598 q 0.0026,-0.0279 -0.0075,-0.0489 -0.0091,-0.0209 -0.027,-0.0336 -0.0169,-0.0126 -0.03781,-0.0146 -0.01991,-0.002 -0.03876,0.006 -0.01885,0.008 -0.03265,0.0271 -0.01281,0.0189 -0.01558,0.0488 l -0.02186,0.23498 q -0.0015,0.0159 -0.0216,0.0271 -0.02012,0.0112 -0.04701,0.009 z m 1.142643,0.10974 q -0.03694,-0.002 -0.07325,-0.0152 -0.03637,-0.0121 -0.06606,-0.0358 -0.02963,-0.0247 -0.04655,-0.0618 -0.01591,-0.037 -0.01311,-0.0859 l 0.02285,-0.39935 q 0.0026,-0.0459 0.02371,-0.0818 0.02108,-0.0359 0.05352,-0.06 0.03249,-0.0252 0.07023,-0.037 0.03874,-0.0118 0.07668,-0.01 0.03894,0.002 0.04995,0.0199 0.01206,0.0167 0.01075,0.0397 -0.0015,0.026 -0.01338,0.0413 -0.01184,0.0144 -0.02981,0.0133 -0.03394,-0.002 -0.05865,0.01 -0.0247,0.0116 -0.03883,0.0308 -0.01312,0.0193 -0.01438,0.0413 l -0.02285,0.39934 q -0.0018,0.0309 0.01429,0.0479 0.01611,0.0159 0.04073,0.0234 0.02462,0.007 0.04758,0.009 0.02496,0.001 0.03092,0.0198 0.007,0.0184 0.0058,0.0394 -0.0014,0.025 -0.01426,0.0393 -0.0129,0.0153 -0.05583,0.0128 z m 0.332757,6.5e-4 q -0.06796,-0.002 -0.122081,-0.0283 -0.05312,-0.0259 -0.08252,-0.0719 -0.0294,-0.0461 -0.02726,-0.10702 0.0013,-0.038 0.01775,-0.0494 0.01745,-0.0124 0.05043,-0.0112 0.02498,8.8e-4 0.04366,0.0105 0.01871,0.009 0.01886,0.0327 0.0012,0.024 0.0083,0.0493 0.0081,0.0253 0.02951,0.0431 0.02142,0.0168 0.0624,0.0182 0.05097,0.002 0.07894,-0.0252 0.029,-0.028 0.03108,-0.087 l 0.01381,-0.39275 -0.102937,-0.004 q -0.01899,-6.7e-4 -0.02938,-0.018 -0.0094,-0.0173 -0.0086,-0.0413 7.03e-4,-0.02 0.01033,-0.0377 0.01063,-0.0176 0.03161,-0.0169 l 0.175891,0.006 q 0.02099,7.4e-4 0.03859,0.0124 0.01764,0.0106 0.0169,0.0316 l -0.01634,0.46471 q -0.003,0.0839 -0.03672,0.13379 -0.03274,0.0489 -0.08552,0.07 -0.05274,0.0202 -0.116701,0.0179 z m 0.545613,0.0148 q -0.06,-3.9e-4 -0.109819,-0.0287 -0.04881,-0.0293 -0.07852,-0.0755 -0.0287,-0.0472 -0.02836,-0.10018 l 0.0015,-0.24 q 9.5e-5,-0.015 0.01918,-0.0279 0.02008,-0.0129 0.04608,-0.0127 0.026,1.7e-4 0.04492,0.0133 0.01892,0.0131 0.01882,0.0281 l -0.0015,0.23999 q -1.47e-4,0.023 0.01173,0.0431 0.01187,0.0201 0.03178,0.0342 0.01992,0.0131 0.04392,0.0133 0.025,1.6e-4 0.04408,-0.0127 0.02008,-0.0129 0.03222,-0.0338 0.01213,-0.0209 0.01227,-0.0429 l 0.0015,-0.24099 q 1.02e-4,-0.016 0.01918,-0.0279 0.02008,-0.0119 0.04508,-0.0117 0.029,1.8e-4 0.04692,0.0123 0.01792,0.0121 0.01782,0.0281 l -0.0015,0.241 q -3.45e-4,0.054 -0.03064,0.1008 -0.02929,0.0458 -0.07947,0.0735 -0.04918,0.0277 -0.107176,0.0273 z m 0.466635,-0.003 q -0.04999,0.001 -0.09224,-0.01 -0.04127,-0.0121 -0.0657,-0.0316 -0.02343,-0.0195 -0.02388,-0.0405 -2.39e-4,-0.011 0.0045,-0.0241 0.0057,-0.0131 0.0145,-0.0233 0.0098,-0.0102 0.02278,-0.0105 0.014,-3.1e-4 0.02925,0.0114 0.01624,0.0106 0.03947,0.0212 0.02423,0.0105 0.06622,0.01 0.04499,-9.8e-4 0.05868,-0.0153 0.01469,-0.0143 0.01437,-0.0293 -4.77e-4,-0.022 -0.01873,-0.0336 -0.01726,-0.0116 -0.0444,-0.018 -0.02717,-0.007 -0.05836,-0.0157 -0.03019,-0.008 -0.05749,-0.0218 -0.02732,-0.0144 -0.04486,-0.039 -0.01756,-0.0256 -0.01845,-0.0666 -7.81e-4,-0.036 0.01548,-0.0704 0.01626,-0.0344 0.05477,-0.0572 0.03849,-0.0238 0.105476,-0.0253 0.04099,-8.9e-4 0.07718,0.007 0.03717,0.007 0.06048,0.0217 0.02332,0.0145 0.02371,0.0325 1.96e-4,0.009 -0.0055,0.0241 -0.0057,0.0141 -0.01643,0.0264 -0.0097,0.0122 -0.02473,0.0125 -0.011,2.4e-4 -0.02715,-0.006 -0.01517,-0.008 -0.03532,-0.0142 -0.02015,-0.007 -0.04814,-0.006 -0.02499,5.4e-4 -0.03984,0.008 -0.01485,0.007 -0.02163,0.0175 -0.0068,0.0101 -0.0065,0.0211 3.91e-4,0.018 0.0176,0.0276 0.01721,0.01 0.04436,0.016 0.02815,0.006 0.05833,0.0147 0.03117,0.007 0.05851,0.0227 0.02834,0.0154 0.04594,0.043 0.01758,0.0266 0.01854,0.0706 0.0015,0.067 -0.04567,0.10802 -0.04612,0.041 -0.1351,0.0429 z m 0.44396,-0.0248 q -0.0899,0.004 -0.139663,-0.0325 -0.04876,-0.0368 -0.05271,-0.12168 l -0.02249,-0.48348 q -8.37e-4,-0.018 0.01963,-0.0299 0.02047,-0.012 0.04244,-0.013 0.02397,-0.001 0.04446,0.009 0.02149,0.01 0.02232,0.028 l 0.008,0.17182 0.117873,-0.005 q 0.01598,-7.4e-4 0.02467,0.0139 0.0096,0.0136 0.01048,0.0315 8.37e-4,0.018 -0.0075,0.0334 -0.0073,0.0144 -0.02332,0.0151 l -0.117872,0.005 0.01013,0.21776 q 0.0014,0.03 0.01394,0.0414 0.01354,0.0114 0.04451,0.01 l 0.03896,-0.002 q 0.02797,-0.001 0.04175,0.0151 0.01478,0.0163 0.0157,0.0363 9.76e-4,0.021 -0.01222,0.0386 -0.0122,0.0176 -0.04017,0.0189 z m 0.435047,-0.028 q -0.02389,0.002 -0.04574,-0.006 -0.02095,-0.009 -0.02292,-0.03 l -0.061,-0.64513 q -0.0021,-0.0219 0.01699,-0.0327 0.01997,-0.0119 0.04386,-0.0142 0.02489,-0.002 0.04574,0.006 0.02076,0.007 0.02283,0.029 l 0.0256,0.27079 0.188361,-0.31312 q 0.01115,-0.0201 0.03306,-0.0222 0.01693,-0.002 0.03479,0.007 0.01886,0.008 0.03222,0.0221 0.01336,0.0138 0.01496,0.0307 4.71e-4,0.005 -8.62e-4,0.0121 -0.0013,0.007 -0.0057,0.0136 l -0.156124,0.23976 0.248284,0.31001 q 0.008,0.0103 0.0091,0.0222 0.0015,0.0159 -0.009,0.032 -0.0095,0.016 -0.02652,0.0276 -0.01707,0.0106 -0.03599,0.0124 -0.01394,0.001 -0.02645,-0.004 -0.01152,-0.005 -0.0217,-0.017 l -0.213993,-0.26604 -0.04736,0.0728 0.01836,0.19414 q 0.002,0.0209 -0.0169,0.0337 -0.01897,0.0118 -0.04386,0.0142 z m 0.46575,-0.63352 q -0.02877,0.004 -0.052,-0.0125 -0.02336,-0.0172 -0.02639,-0.041 -0.0033,-0.0258 0.01527,-0.0463 0.01843,-0.0215 0.0472,-0.0252 0.02976,-0.004 0.052,0.0125 0.02211,0.0153 0.0254,0.0411 0.003,0.0238 -0.01428,0.0462 -0.01744,0.0214 -0.0472,0.0252 z m 0.07341,0.57635 q -0.02778,0.004 -0.04727,-0.007 -0.0195,-0.0106 -0.02152,-0.0265 l -0.04965,-0.38985 q -0.0023,-0.0179 0.01419,-0.031 0.01646,-0.0132 0.04424,-0.0167 0.02678,-0.003 0.04702,0.005 0.02024,0.009 0.02251,0.0264 l 0.04965,0.38985 q 0.002,0.0159 -0.01518,0.0312 -0.01721,0.0153 -0.04399,0.0187 z m 0.320032,-0.0363 q -0.04639,0.008 -0.09053,-0.0146 -0.04414,-0.0222 -0.07539,-0.0647 -0.03125,-0.0425 -0.03977,-0.0948 l -0.01319,-0.0809 q -0.009,-0.0553 0.0073,-0.10453 0.01629,-0.0493 0.05142,-0.0823 0.03498,-0.0341 0.08334,-0.042 0.04639,-0.008 0.08282,0.0108 0.03627,0.0174 0.05673,0.0434 l -0.04938,-0.303 q -0.0029,-0.0178 0.01409,-0.0317 0.01698,-0.0139 0.04462,-0.0184 0.02665,-0.004 0.04618,0.004 0.01953,0.008 0.02243,0.0257 l 0.107777,0.66127 q 0.0026,0.0158 -0.0131,0.0315 -0.01567,0.0157 -0.04232,0.0201 -0.02369,0.004 -0.04256,-0.006 -0.01887,-0.0101 -0.02144,-0.0259 l -0.0045,-0.0276 q -0.0098,0.033 -0.04445,0.063 -0.03364,0.0298 -0.08003,0.0374 z m 0.02229,-0.11812 q 0.02566,-0.004 0.04315,-0.0212 0.01733,-0.018 0.02644,-0.0367 0.0089,-0.0197 0.0073,-0.0296 l -0.01609,-0.0987 q -0.0045,-0.0276 -0.02154,-0.0451 -0.01605,-0.0177 -0.03854,-0.0251 -0.02151,-0.008 -0.04224,-0.004 -0.02369,0.004 -0.04216,0.0211 -0.01765,0.0161 -0.02627,0.0377 -0.0076,0.0215 -0.0039,0.0442 l 0.01319,0.0809 q 0.0037,0.0227 0.01794,0.0417 0.01522,0.0188 0.03721,0.0294 0.02183,0.01 0.04552,0.006 z m 0.488645,0.0238 q -0.0459,0.0101 -0.0912,-0.01 -0.0453,-0.0197 -0.07883,-0.0605 -0.03354,-0.0407 -0.04492,-0.0925 l -0.01762,-0.0801 q -0.01203,-0.0547 0.0015,-0.10477 0.01356,-0.0501 0.04682,-0.085 0.03305,-0.0359 0.08091,-0.0465 0.0459,-0.0101 0.08329,0.006 0.03717,0.0154 0.05903,0.0403 l -0.06595,-0.29983 q -0.0039,-0.0176 0.01233,-0.0324 0.01619,-0.0148 0.04354,-0.0208 0.02637,-0.006 0.04631,0.001 0.01994,0.007 0.02381,0.0245 l 0.14393,0.65436 q 0.0034,0.0156 -0.01135,0.0322 -0.01479,0.0166 -0.04116,0.0224 -0.02344,0.005 -0.04284,-0.004 -0.0194,-0.009 -0.02283,-0.0247 l -0.006,-0.0273 q -0.008,0.0335 -0.04092,0.0653 -0.03196,0.0316 -0.07786,0.0417 z m 0.01577,-0.11917 q 0.02539,-0.006 0.04192,-0.0236 0.01631,-0.0189 0.02438,-0.0381 0.0079,-0.0202 0.0057,-0.0299 l -0.02148,-0.0977 q -0.006,-0.0273 -0.02399,-0.0439 -0.01699,-0.0167 -0.03986,-0.023 -0.0219,-0.006 -0.04241,-0.002 -0.02344,0.005 -0.04094,0.0233 -0.01674,0.017 -0.02416,0.0391 -0.0064,0.0219 -0.0015,0.0444 l 0.01762,0.0801 q 0.0049,0.0225 0.0202,0.0406 0.01623,0.0179 0.03877,0.0273 0.02233,0.008 0.04577,0.003 z m 0.245442,-0.55014 q -0.02801,0.008 -0.05321,-0.005 -0.02546,-0.0139 -0.03166,-0.0371 -0.0067,-0.0251 0.0089,-0.0479 0.01537,-0.0238 0.04339,-0.0313 0.02898,-0.008 0.05321,0.005 0.02398,0.0122 0.0307,0.0373 0.0062,0.0232 -0.0079,0.0477 -0.01441,0.0235 -0.04339,0.0313 z m 0.150248,0.56123 q -0.02705,0.007 -0.0478,-6.6e-4 -0.02075,-0.008 -0.02489,-0.0234 l -0.10163,-0.37963 q -0.0047,-0.0174 0.0099,-0.0327 0.01454,-0.0153 0.04159,-0.0225 0.02608,-0.007 0.04728,-0.001 0.0212,0.006 0.02585,0.0231 l 0.10163,0.37963 q 0.0041,0.0155 -0.01085,0.0329 -0.01499,0.0175 -0.04107,0.0245 z m 0.219802,-0.0607 q -0.02663,0.009 -0.04777,0.002 -0.02113,-0.007 -0.02607,-0.022 l -0.121286,-0.37382 q -0.0056,-0.0171 0.0082,-0.0331 0.01373,-0.016 0.04036,-0.0247 0.02283,-0.007 0.04144,-0.002 0.01957,0.005 0.02512,0.0223 l 0.0093,0.0285 q 0.0053,-0.0322 0.03056,-0.0646 0.02588,-0.0336 0.07344,-0.0491 0.04471,-0.0145 0.09044,9e-5 0.04543,0.0137 0.0815,0.0503 0.03702,0.0363 0.05431,0.0896 l 0.07283,0.22448 q 0.0065,0.02 -0.0091,0.0366 -0.01594,0.0157 -0.03972,0.0234 -0.02093,0.007 -0.04399,0.004 -0.02337,-0.004 -0.02985,-0.024 l -0.07283,-0.22448 q -0.0071,-0.0219 -0.02469,-0.0372 -0.01664,-0.0156 -0.03967,-0.0218 -0.02334,-0.007 -0.04617,2.6e-4 -0.01902,0.006 -0.0337,0.0225 -0.01468,0.0163 -0.01992,0.0391 -0.0052,0.0227 0.0034,0.0494 l 0.07283,0.22448 q 0.0049,0.0152 -0.0091,0.0334 -0.01406,0.0182 -0.03974,0.0266 z m 0.692941,-0.0132 q -0.05449,0.0226 -0.108114,0.0265 -0.05231,0.004 -0.09321,-0.0133 -0.03997,-0.0181 -0.05684,-0.0587 -0.01457,-0.0351 -0.0055,-0.0681 0.0094,-0.0321 0.03231,-0.0578 -0.021,-0.001 -0.03783,-0.0103 -0.01629,-0.0106 -0.02549,-0.0327 -0.01073,-0.0259 -0.0043,-0.0469 0.007,-0.0224 0.02152,-0.0447 -0.03652,-0.01 -0.06449,-0.0328 -0.02743,-0.0244 -0.04238,-0.0604 l -0.0081,-0.0194 q -0.01878,-0.0452 -0.0108,-0.0886 0.0089,-0.0437 0.0415,-0.08 0.03351,-0.0366 0.08708,-0.0589 0.03048,-0.0126 0.06033,-0.0164 0.02947,-0.005 0.05608,-5.4e-4 3.69e-4,-0.0435 0.0089,-0.0621 0.0085,-0.0187 0.02142,-0.024 0.02217,-0.009 0.03954,-0.001 0.0183,0.008 0.0229,0.0187 0.0035,0.008 0.0015,0.0167 -0.001,0.008 -0.0056,0.0153 -0.0069,0.009 -0.01549,0.0227 -0.0089,0.0124 -0.01335,0.0304 0.02429,0.0116 0.04126,0.0316 0.01751,0.0187 0.02863,0.0455 l 0.008,0.0194 q 0.0184,0.0443 0.0099,0.089 -0.0089,0.0438 -0.04204,0.0813 -0.03313,0.0376 -0.0867,0.0598 -0.03325,0.0138 -0.06348,0.0166 -0.0031,0.006 -0.0049,0.0118 -8.54e-4,0.006 0.0014,0.0113 0.0065,0.0157 0.02952,0.0137 0.023,-0.002 0.05594,-0.0113 0.03294,-0.009 0.07072,-0.0174 0.03832,-0.009 0.07509,-0.01 0.03677,-1e-4 0.06782,0.0173 0.03067,0.0165 0.0483,0.059 0.02147,0.0517 0.0049,0.0954 -0.01522,0.0442 -0.05526,0.0782 -0.03912,0.0336 -0.09085,0.055 z m -0.03366,-0.0759 q 0.03602,-0.0149 0.05367,-0.0429 0.01858,-0.0283 0.0063,-0.0578 -0.0081,-0.0194 -0.02412,-0.0268 -0.01607,-0.007 -0.03815,-0.006 -0.02077,0.002 -0.04447,0.008 -0.02332,0.006 -0.04663,0.0129 -0.01795,0.0194 -0.02529,0.0408 -0.0073,0.0214 0.0019,0.0436 0.01265,0.0305 0.04579,0.0373 0.03407,0.006 0.07101,-0.009 z m -0.133712,-0.31696 q 0.03048,-0.0126 0.03844,-0.043 0.008,-0.0304 -0.007,-0.0664 l -0.0081,-0.0194 q -0.01418,-0.0342 -0.04131,-0.05 -0.02621,-0.0162 -0.05853,-0.003 -0.0314,0.013 -0.03937,0.0434 -0.007,0.03 0.0071,0.0642 l 0.0077,0.0185 q 0.01457,0.0351 0.04116,0.0522 0.02751,0.0167 0.05984,0.003 z m 0.380227,0.078 q -0.03745,0.019 -0.05629,0.0106 -0.01749,-0.008 -0.0288,-0.0302 -0.0095,-0.0187 -0.01051,-0.0384 -0.001,-0.0197 0.02128,-0.031 0.0214,-0.0109 0.04009,-0.0271 0.01958,-0.0167 0.02706,-0.0373 0.0079,-0.022 -0.0061,-0.0496 l -0.181,-0.35671 q -0.01,-0.0196 -0.02971,-0.032 -0.01975,-0.0124 -0.04704,-0.0131 -0.02728,-7.3e-4 -0.05761,0.0146 -0.01605,0.008 -0.03354,2e-4 -0.01705,-0.009 -0.02881,-0.0325 -0.01041,-0.0205 -0.0061,-0.0407 0.0048,-0.0215 0.03779,-0.0382 0.03478,-0.0177 0.07411,-0.0219 0.04022,-0.005 0.08008,0.005 0.03941,0.009 0.0722,0.034 0.03369,0.0244 0.0545,0.0654 l 0.181001,0.3567 q 0.02217,0.0437 0.02241,0.0839 2.39e-4,0.0403 -0.017,0.0748 -0.01769,0.0336 -0.04616,0.0593 -0.02802,0.0265 -0.06191,0.0437 z"
         id="text106"
         style="font-weight:bold;font-size:1px;font-family:Dosis;-inkscape-font-specification:'Dosis Bold';text-align:center;text-anchor:middle;opacity:0.569231;fill:#4d4d4d;stroke-width:1.127;stroke-linecap:round;stroke-linejoin:round"
         aria-label="I ♥ Capitalism (Just Kidding)" />
    </g>
  </g>
</svg>
